:SAMPLES-PER-SECOND 30
:FULLY-SPECIFIED
:DEGREES
191
root  -65.6457 30.7023 38.3518 -151.969 56.2433 -172.301
RightUpLeg  -34.8301 -10.3557 -8.08272
RightLeg  40.4349 3.36117 2.48398
RightFoot  -11.4074 -0.0231888 0.145387
RightToes  -45.448 -0.2634 -0.343784
Spine  13.2216 2.69269 -0.971434
Spine1  21.1648 8.2591 -4.17545
HEad  9.89363 7.19413 5.19726
LeftShoulder1  0 -2.42657e-020 -4.95415e-022
LeftArm  -29.7306 -21.9872 -92.2904
LeftForeArm  42.4156 -18.2369 -3.31126
LeftHand  0.146433 -8.35445 -2.37666
RightShoulder  0 2.42657e-020 1.07489e-018
RightArm  -18.4552 33.5494 90.6803
RightForeArm  57.7533 21.5942 3.95617
RightHand  -2.25035 27.6336 -8.7639
LeftUpLeg  -55.1019 11.7586 6.07565
LeftLeg  53.8469 -1.06433 -1.28406
LeftFoot  -7.42684 -0.00187381 -0.0288803
LeftToes  -21.5144 8.63562e-007 1.17448e-007
192
root  -65.5938 30.1883 38.0915 -153.354 53.3706 -174.226
RightUpLeg  -35.3981 -6.95521 -9.0264
RightLeg  45.2903 -3.08582 -2.76973
RightFoot  -15.9072 0.247422 2.14842
RightToes  -38.7141 -0.208293 -0.307744
Spine  14.5293 3.30338 -1.58037
Spine1  22.6624 10.2143 -5.37577
HEad  9.05782 2.62674 8.34342
LeftShoulder1  0 -2.42657e-020 -4.95415e-022
LeftArm  -27.8103 -25.7996 -92.8108
LeftForeArm  39.5537 -18.5571 -3.37742
LeftHand  0.15724 -7.81651 -2.67361
RightShoulder  0 2.42657e-020 1.07489e-018
RightArm  -32.2424 41.9214 92.0369
RightForeArm  69.374 10.8763 1.87399
RightHand  0.765517 25.7345 3.72122
LeftUpLeg  -57.6445 9.43963 5.4644
LeftLeg  57.267 -1.39861 -1.90467
LeftFoot  -8.95145 0.0143453 0.183258
LeftToes  -21.0533 8.63562e-007 1.17448e-007
193
root  -65.4851 29.7839 37.9117 -154.495 49.427 -176.177
RightUpLeg  -35.3629 -4.5331 -9.91914
RightLeg  48.7093 -7.40667 -7.38972
RightFoot  -17.9855 0.612041 4.24373
RightToes  -36.3151 -0.189736 -0.293374
Spine  15.268 2.9712 -2.31056
Spine1  23.4673 9.53172 -5.82375
HEad  7.52457 -1.6857 12.4535
LeftShoulder1  0 -2.42657e-020 -4.95415e-022
LeftArm  -26.4286 -28.8193 -91.8113
LeftForeArm  37.233 -19.0161 -3.47021
LeftHand  0.188872 -7.58973 -3.21976
RightShoulder  0 2.42657e-020 1.07489e-018
RightArm  -43.0004 45.7901 91.9838
RightForeArm  75.6743 4.18561 0.661848
RightHand  1.76302 20.9008 9.91024
LeftUpLeg  -59.9815 6.27654 5.20294
LeftLeg  59.5441 -1.7207 -2.54618
LeftFoot  -9.78026 0.0294451 0.344149
LeftToes  -20.8663 8.63562e-007 1.17448e-007
194
root  -65.2754 29.5208 37.7514 -155.292 45.9139 -177.726
RightUpLeg  -35.543 -3.40976 -10.413
RightLeg  52.2294 -9.24281 -10.3505
RightFoot  -19.2073 0.887712 5.62063
RightToes  -30.5751 -0.147901 -0.255943
Spine  15.7886 2.40531 -3.22054
Spine1  24.1427 8.15843 -6.36915
HEad  5.96061 -4.95283 16.6878
LeftShoulder1  0 -2.42657e-020 -4.95415e-022
LeftArm  -26.3338 -31.5028 -89.4802
LeftForeArm  35.4789 -19.5338 -3.57433
LeftHand  0.180477 -7.03616 -3.30815
RightShoulder  0 2.42657e-020 1.07489e-018
RightArm  -42.6814 45.5314 93.6046
RightForeArm  75.2516 4.09068 0.646313
RightHand  1.50564 18.6354 9.53083
LeftUpLeg  -61.3657 3.83486 4.9904
LeftLeg  60.6983 -2.27494 -3.51082
LeftFoot  -10.5239 0.053889 0.585113
LeftToes  -20.3269 8.63562e-007 1.17448e-007
195
root  -64.939 29.4308 37.723 -155.72 42.5892 -178.684
RightUpLeg  -35.6979 -2.72491 -10.0466
RightLeg  55.8244 -10.8554 -13.6709
RightFoot  -17.9633 0.979032 6.56615
RightToes  -36.1635 -0.188584 -0.292441
Spine  16.2347 1.71977 -4.05457
Spine1  24.8049 6.65458 -7.14405
HEad  5.12636 -6.86014 19.7881
LeftShoulder1  0 -2.42657e-020 -4.95415e-022
LeftArm  -28.4286 -33.7391 -86.1613
LeftForeArm  35.1879 -20.2794 -3.72338
LeftHand  0.24523 -6.63669 -4.60233
RightShoulder  0 2.42657e-020 1.07489e-018
RightArm  -40.1172 44.071 96.7538
RightForeArm  76.5998 5.51927 0.894572
RightHand  0.871411 21.6564 4.92504
LeftUpLeg  -61.9948 2.48291 5.07659
LeftLeg  60.7578 -3.5934 -5.53934
LeftFoot  -10.3395 0.0932943 1.03113
LeftToes  -21.5601 8.63562e-007 1.17448e-007
196
root  -64.6 29.5235 37.6887 -155.325 40.157 -178.625
RightUpLeg  -36.3948 -2.76098 -8.8967
RightLeg  58.5202 -11.1586 -15.4208
RightFoot  -15.7017 0.829718 6.38979
RightToes  -32.0599 -0.15836 -0.266025
Spine  16.3121 1.28973 -4.62979
Spine1  25.0372 5.56263 -7.66242
HEad  4.73533 -8.07661 22.1514
LeftShoulder1  0 -2.42657e-020 -4.95415e-022
LeftArm  -30.0777 -34.7679 -82.4607
LeftForeArm  33.3519 -21.8378 -4.04083
LeftHand  0.321753 -6.75229 -5.82589
RightShoulder  0 2.42657e-020 1.07489e-018
RightArm  -33.2829 40.9813 99.2457
RightForeArm  72.1458 8.4404 1.42674
RightHand  0.121267 23.3541 0.957021
LeftUpLeg  -62.0102 1.71646 5.71361
LeftLeg  60.0219 -4.43412 -6.63294
LeftFoot  -10.123 0.111717 1.26127
LeftToes  -22.3691 8.63562e-007 1.17448e-007
197
root  -64.1596 29.7633 37.7055 -154.872 38.1975 -178.409
RightUpLeg  -37.0608 -3.51088 -7.32033
RightLeg  60.4203 -11.2028 -16.5649
RightFoot  -13.8941 0.690413 6.03957
RightToes  -29.0719 -0.137582 -0.245464
Spine  16.1469 1.00906 -5.03079
Spine1  25.0204 4.69244 -8.00612
HEad  4.0247 -9.21893 23.6945
LeftShoulder1  0 -2.42657e-020 -4.95415e-022
LeftArm  -31.0729 -34.4088 -78.6261
LeftForeArm  31.1312 -25.0629 -4.72011
LeftHand  0.54009 -7.84135 -8.24529
RightShoulder  0 2.42657e-020 1.07489e-018
RightArm  -25.9357 37.3559 100.444
RightForeArm  65.006 11.5707 2.01172
RightHand  -0.244859 23.2816 -0.818727
LeftUpLeg  -61.3774 1.102 6.67656
LeftLeg  58.4289 -5.17251 -7.2788
LeftFoot  -9.44015 0.110674 1.34034
LeftToes  -23.4476 8.63562e-007 1.17448e-007
198
root  -63.711 30.0855 37.6578 -154.435 36.3259 -178.123
RightUpLeg  -37.2437 -5.98778 -5.59112
RightLeg  60.9638 -10.6994 -16.1884
RightFoot  -11.6657 0.480475 5.07862
RightToes  -27.3289 -0.125967 -0.23298
Spine  15.6609 0.818882 -5.1139
Spine1  24.5445 4.06529 -8.17139
HEad  3.33899 -10.2629 25.2942
LeftShoulder1  0 -2.42657e-020 -4.95415e-022
LeftArm  -30.3508 -32.8074 -75.5363
LeftForeArm  28.9614 -29.854 -5.80096
LeftHand  0.68224 -8.87177 -9.15444
RightShoulder  0 2.42657e-020 1.07489e-018
RightArm  -21.7965 33.6198 100.543
RightForeArm  58.3098 14.1058 2.49584
RightHand  -0.192526 23.6774 -0.548584
LeftUpLeg  -60.2321 -0.600599 8.20153
LeftLeg  56.1121 -5.23297 -6.77063
LeftFoot  -8.71953 0.0887578 1.16415
LeftToes  -24.6774 8.63562e-007 1.17448e-007
199
root  -63.1955 30.4136 37.6708 -154.426 35.7661 -177.912
RightUpLeg  -37.1908 -7.89392 -4.32965
RightLeg  60.5062 -8.81674 -13.2689
RightFoot  -9.8954 0.292737 3.75839
RightToes  -31.3049 -0.153009 -0.260932
Spine  15.1377 1.12427 -5.23949
Spine1  24.0096 4.54395 -8.5747
HEad  2.5355 -11.2966 26.5884
LeftShoulder1  0 -2.42657e-020 -4.95415e-022
LeftArm  -29.6816 -31.4135 -73.4973
LeftForeArm  29.2213 -35.0285 -7.09518
LeftHand  0.510601 -7.05192 -8.65071
RightShoulder  0 2.42657e-020 1.07489e-018
RightArm  -22.2662 30.419 100.591
RightForeArm  53.8312 15.8677 2.83727
RightHand  0.112621 23.5871 0.909636
LeftUpLeg  -58.3575 0.116811 8.7373
LeftLeg  53.7857 -6.17395 -7.33879
LeftFoot  -7.9938 0.0839959 1.20208
LeftToes  -25.6605 8.63562e-007 1.17448e-007
200
root  -62.6994 30.7084 37.6057 -154.945 34.8684 -178.152
RightUpLeg  -36.3971 -11.7129 -3.63845
RightLeg  58.9103 -5.7057 -8.22462
RightFoot  -9.29982 0.178051 2.56659
RightToes  -34.7471 -0.177939 -0.283568
Spine  14.4014 1.54324 -5.13884
Spine1  23.1092 5.35164 -8.91834
HEad  2.01907 -13.184 27.7391
LeftShoulder1  0 -2.42657e-020 -4.95415e-022
LeftArm  -32.9451 -29.0873 -73.0943
LeftForeArm  23.4827 -41.2248 -8.89172
LeftHand  1.07434 -9.58691 -13.1382
RightShoulder  0 2.42657e-020 1.07489e-018
RightArm  -23.5179 26.5567 99.6561
RightForeArm  50.2092 17.7028 3.19665
RightHand  0.550058 23.8103 2.9794
LeftUpLeg  -56.3039 0.535927 8.81097
LeftLeg  51.5777 -7.14405 -7.84338
LeftFoot  -7.13365 0.075888 1.2174
LeftToes  -26.9345 8.63562e-007 1.17448e-007
201
root  -62.2148 30.9786 37.5506 -155.648 34.4799 -178.583
RightUpLeg  -35.3668 -14.5853 -3.98005
RightLeg  56.6342 -2.72656 -3.6754
RightFoot  -9.65281 0.109481 1.67423
RightToes  -39.9123 -0.217783 -0.314626
Spine  13.5178 2.25165 -4.80847
Spine1  21.9715 7.03542 -9.53967
HEad  1.47078 -14.7426 28.6255
LeftShoulder1  0 -2.42657e-020 -4.95415e-022
LeftArm  -31.1046 -25.9973 -73.0365
LeftForeArm  24.9888 -49.5603 -11.9625
LeftHand  1.10198 -8.37046 -15.3563
RightShoulder  0 2.42657e-020 1.07489e-018
RightArm  -24.4147 22.6666 98.3037
RightForeArm  47.9772 19.4002 3.53348
RightHand  0.705426 24.4358 3.62789
LeftUpLeg  -53.9873 1.1368 8.78666
LeftLeg  49.0215 -8.43109 -8.44639
LeftFoot  -6.31064 0.0680628 1.23461
LeftToes  -28.4835 8.63562e-007 1.17448e-007
202
root  -61.7304 31.1531 37.4934 -156.536 34.5847 -179.016
RightUpLeg  -34.1717 -16.1123 -5.31298
RightLeg  54.2675 -1.23316 -1.56079
RightFoot  -9.03226 0.0672673 1.22928
RightToes  -42.2868 -0.237004 -0.327672
Spine  12.9044 2.84212 -4.49752
Spine1  21.1659 8.49867 -9.79992
HEad  0.803526 -15.822 29.0134
LeftShoulder1  0 -2.42657e-020 -4.95415e-022
LeftArm  -30.4351 -22.2576 -74.078
LeftForeArm  29.0524 -60.0001 -17.8538
LeftHand  1.2574 -8.17635 -17.8418
RightShoulder  0 2.42657e-020 1.07489e-018
RightArm  -24.5982 19.173 96.7503
RightForeArm  46.5153 21.1079 3.87833
RightHand  0.659566 24.9946 3.34597
LeftUpLeg  -51.7235 1.84383 8.71123
LeftLeg  47.215 -9.22206 -8.66392
LeftFoot  -5.91781 0.0648405 1.24348
LeftToes  -29.7437 8.63562e-007 1.17448e-007
203
root  -61.215 31.2333 37.455 -157.17 35.1627 -179.099
RightUpLeg  -33.0589 -17.3043 -6.99994
RightLeg  51.592 -1.72664 -1.96149
RightFoot  -8.70125 0.0713627 1.31564
RightToes  -42.4361 -0.23823 -0.328466
Spine  12.6404 3.17739 -4.15775
Spine1  20.959 9.09665 -9.09099
HEad  0.0688583 -17.1085 29.364
LeftShoulder1  0 -2.42657e-020 -4.95415e-022
LeftArm  -28.9023 -19.4958 -75.0373
LeftForeArm  37.1766 -68.3775 -26.5797
LeftHand  1.21255 -8.02611 -17.5399
RightShoulder  0 2.42657e-020 1.07489e-018
RightArm  -26.4506 17.0393 95.3578
RightForeArm  44.8486 22.3349 4.13204
RightHand  0.783184 25.1928 3.87472
LeftUpLeg  -49.8656 2.81378 9.01114
LeftLeg  46.3155 -9.65779 -8.78628
LeftFoot  -5.95004 0.0634186 1.25614
LeftToes  -31.1682 8.63562e-007 1.17448e-007
204
root  -60.6808 31.2214 37.4629 -157.689 35.8083 -178.948
RightUpLeg  -31.9533 -17.9209 -9.07386
RightLeg  48.6079 -3.52501 -3.55008
RightFoot  -8.49533 0.0939558 1.64266
RightToes  -40.8076 -0.224967 -0.319639
Spine  12.5713 3.22306 -3.69723
Spine1  21.0863 8.81158 -7.77473
HEad  -0.474662 -18.4147 29.8677
LeftShoulder1  0 -2.42657e-020 -4.95415e-022
LeftArm  -26.9712 -18.027 -76.028
LeftForeArm  49.4213 -74.0229 -38.3509
LeftHand  1.08242 -7.80699 -16.1476
RightShoulder  0 2.42657e-020 1.07489e-018
RightArm  -28.7154 15.632 93.9556
RightForeArm  43.237 23.0368 4.2801
RightHand  0.758505 25.3297 3.7454
LeftUpLeg  -48.4427 3.37567 9.79832
LeftLeg  46.2197 -9.51828 -8.63399
LeftFoot  -6.29595 0.0671657 1.22119
LeftToes  -32.5898 8.63562e-007 1.17448e-007
205
root  -60.1087 31.1062 37.5488 -158.2 36.6145 -178.815
RightUpLeg  -30.796 -17.4356 -11.8727
RightLeg  45.2994 -5.0807 -4.52981
RightFoot  -9.56117 0.138258 2.03077
RightToes  -38.0769 -0.203306 -0.304003
Spine  12.5353 3.11585 -3.20559
Spine1  21.1587 8.24532 -6.50258
HEad  -0.608577 -19.6519 30.163
LeftShoulder1  0 -2.42657e-020 -4.95415e-022
LeftArm  -24.8193 -17.5684 -77.0965
LeftForeArm  63.2422 -76.9905 -50.3313
LeftHand  0.942996 -7.5898 -14.5277
RightShoulder  0 2.42657e-020 1.07489e-018
RightArm  -30.3466 14.6938 92.6355
RightForeArm  42.3628 23.3983 4.35699
RightHand  0.677784 24.8399 3.4478
LeftUpLeg  -47.3089 3.78309 10.8036
LeftLeg  46.6557 -9.06164 -8.3542
LeftFoot  -7.00243 0.0738319 1.20667
LeftToes  -33.985 8.63562e-007 1.17448e-007
